# Blender v2.93.5 OBJ File: '3d箭头0823.blend'
# www.blender.org
mtllib arrow.mtl
o 上下面_网格.037
v 0.316864 0.006468 0.248940
v -0.322398 0.006467 0.248940
v -0.326373 0.006467 0.254260
v -0.328440 0.006467 0.259256
v -0.328944 0.006467 0.264258
v -0.327913 0.006467 0.269565
v -0.325090 0.006467 0.275544
v -0.322508 0.006467 0.279810
v -0.318700 0.006467 0.284766
v -0.315080 0.006467 0.287339
v -0.311396 0.006467 0.288199
v -0.307011 0.006467 0.287495
v -0.301427 0.006467 0.284750
v 0.295892 0.006468 0.284751
v 0.301476 0.006468 0.287495
v 0.305861 0.006468 0.288200
v 0.309545 0.006468 0.287339
v 0.313165 0.006468 0.284766
v 0.316973 0.006468 0.279811
v 0.319555 0.006468 0.275544
v 0.322378 0.006468 0.269565
v 0.323409 0.006468 0.264259
v 0.322905 0.006468 0.259256
v 0.320839 0.006468 0.254261
v 0.319555 0.016049 0.275544
v 0.316973 0.016049 0.279811
v 0.313165 0.016049 0.284766
v 0.309545 0.016049 0.287339
v 0.305861 0.016049 0.288200
v 0.301476 0.016049 0.287495
v 0.295892 0.016049 0.284751
v -0.301427 0.016048 0.284750
v -0.307011 0.016048 0.287495
v -0.311396 0.016048 0.288199
v -0.315080 0.016048 0.287339
v -0.318700 0.016048 0.284766
v -0.322508 0.016048 0.279810
v -0.325090 0.016048 0.275544
v -0.327913 0.016048 0.269565
v -0.328944 0.016048 0.264258
v -0.328440 0.016048 0.259256
v -0.326373 0.016048 0.254260
v -0.322398 0.016048 0.248940
v 0.316864 0.016049 0.248940
v 0.320839 0.016049 0.254261
v 0.322905 0.016049 0.259256
v 0.323409 0.016049 0.264259
v 0.322378 0.016049 0.269565
v 0.017256 0.021300 -0.080753
v -0.027737 0.036730 0.107664
v 0.022180 -0.019489 0.107649
v -0.022789 0.013144 -0.080755
v -0.022791 0.021300 -0.080753
v 0.022202 0.036730 0.107664
v -0.027714 -0.019489 0.107649
v 0.017254 0.013144 -0.080755
v 0.011535 0.021351 -0.086149
v 0.005814 0.021386 -0.089747
v 0.000093 0.021403 -0.091545
v -0.005628 0.021403 -0.091545
v -0.011349 0.021385 -0.089747
v -0.017070 0.021351 -0.086149
v -0.020603 0.037115 0.103707
v -0.013469 0.037371 0.101069
v -0.006334 0.037499 0.099750
v 0.000800 0.037499 0.099750
v 0.007934 0.037371 0.101069
v 0.015068 0.037115 0.103707
v 0.015052 -0.020003 0.103696
v 0.007924 -0.020346 0.101061
v 0.000797 -0.020518 0.099743
v -0.006331 -0.020518 0.099743
v -0.013459 -0.020347 0.101061
v -0.020587 -0.020003 0.103696
v -0.017068 0.013238 -0.086151
v -0.011348 0.013300 -0.089748
v -0.005627 0.013332 -0.091547
v 0.000093 0.013332 -0.091547
v 0.005813 0.013300 -0.089748
v 0.011534 0.013238 -0.086151
vt 0.225483 0.469309
vt 0.785772 0.042181
vt 0.514291 0.461758
vt 0.791059 0.026899
vt 0.789979 0.033621
vt 0.789741 0.021251
vt 0.785796 0.015703
vt 0.778199 0.009865
vt 0.730878 0.010033
vt 0.739033 0.003940
vt 0.746691 0.000771
vt 0.754359 0.000000
vt 0.762494 0.001580
vt 0.771660 0.005907
vt 0.730878 0.010033
vt 0.746691 0.000771
vt 0.739033 0.003940
vt 0.754359 0.000000
vt 0.762494 0.001580
vt 0.771660 0.005907
vt 0.785796 0.015703
vt 0.778199 0.009865
vt 0.789741 0.021251
vt 0.791059 0.026899
vt 0.789979 0.033621
vt 0.785772 0.042181
vt 0.514313 0.461724
vt 0.225486 0.469306
vt 0.789979 0.966379
vt 0.514291 0.538242
vt 0.785772 0.957819
vt 0.791059 0.973101
vt 0.789741 0.978749
vt 0.785796 0.984297
vt 0.778199 0.990135
vt 0.730878 0.989967
vt 0.225483 0.530691
vt 0.739033 0.996060
vt 0.746691 0.999229
vt 0.754359 1.000000
vt 0.762494 0.998420
vt 0.771660 0.994093
vt 0.225486 0.530694
vt 0.785772 0.957819
vt 0.514313 0.538276
vt 0.785796 0.984297
vt 0.771660 0.994093
vt 0.778199 0.990135
vt 0.789741 0.978749
vt 0.791059 0.973101
vt 0.789979 0.966379
vt 0.762494 0.998420
vt 0.754359 1.000000
vt 0.746691 0.999229
vt 0.739033 0.996060
vt 0.730878 0.989967
vt 0.508248 0.527340
vt 0.217214 0.521925
vt 0.217212 0.521922
vt 0.508231 0.527316
vt 0.504205 0.516404
vt 0.211700 0.513155
vt 0.502183 0.505468
vt 0.208943 0.504385
vt 0.502183 0.494532
vt 0.208943 0.495615
vt 0.504205 0.483596
vt 0.211700 0.486845
vt 0.508248 0.472660
vt 0.217214 0.478075
vt 0.211698 0.513153
vt 0.504191 0.516389
vt 0.208941 0.504384
vt 0.502171 0.505463
vt 0.208941 0.495616
vt 0.502171 0.494537
vt 0.211698 0.486847
vt 0.504191 0.483611
vt 0.217212 0.478078
vt 0.508231 0.472684
vn 0.1549 -0.9735 -0.1685
vn 0.0216 -0.9993 -0.0306
vn 0.1906 -0.9664 -0.1724
vn 0.0000 -1.0000 0.0000
vn -0.0064 -1.0000 -0.0056
vn -0.0177 -0.9998 0.0001
vn 0.0408 0.9992 0.0049
vn -0.0000 1.0000 0.0000
vn 0.0276 0.9995 0.0162
vn 0.1044 0.9914 -0.0795
vn 0.0929 0.9922 -0.0837
vn 0.0411 -0.9779 0.2049
vn -0.1634 -0.9727 -0.1645
vn 0.2479 -0.8271 0.5044
vn -0.0162 -0.9930 0.1173
vn -0.0412 -0.9961 0.0781
vn -0.0554 -0.9969 0.0551
vn -0.0591 -0.9980 0.0221
vn -0.0802 -0.9965 -0.0227
vn -0.1518 -0.9732 -0.1725
vn -0.0946 0.9922 -0.0816
vn -0.0175 0.9998 -0.0029
vn -0.1197 0.9892 -0.0842
vn -0.0060 1.0000 0.0065
vn -0.0121 0.9999 0.0045
vn -0.0152 0.9999 0.0017
vn -0.0208 0.9998 -0.0033
vn -0.0340 0.9993 -0.0151
vn -0.0978 0.9925 -0.0731
vn -0.0877 0.9926 -0.0838
vn -0.0668 0.9942 -0.0840
vn -0.1118 -0.9785 -0.1732
vn -0.1458 -0.9740 -0.1734
vn -0.0528 0.9951 -0.0838
vn -0.0396 0.9957 -0.0840
vn -0.0176 0.9963 -0.0838
vn -0.0131 0.9964 -0.0839
vn 0.0177 0.9963 -0.0839
vn 0.0131 0.9964 -0.0838
vn 0.0529 0.9951 -0.0840
vn 0.0396 0.9957 -0.0838
vn 0.0879 0.9926 -0.0841
vn 0.0666 0.9943 -0.0837
vn -0.0666 -0.9825 -0.1738
vn -0.0881 -0.9808 -0.1740
vn -0.0221 -0.9845 -0.1742
vn -0.0295 -0.9843 -0.1743
vn 0.0220 -0.9844 -0.1743
vn 0.0294 -0.9843 -0.1742
vn 0.0666 -0.9825 -0.1741
vn 0.0880 -0.9809 -0.1737
vn 0.1121 -0.9784 -0.1737
vn 0.1455 -0.9741 -0.1729
usemtl 纹理1
s 1
f 56/1/1 14/2/2 51/3/3
f 14/2/2 16/4/4 15/5/4
f 14/2/2 17/6/4 16/4/4
f 14/2/2 18/7/4 17/6/4
f 14/2/2 19/8/5 18/7/4
f 56/1/1 19/8/5 14/2/2
f 1/9/6 19/8/5 56/1/1
f 24/10/4 19/8/5 1/9/6
f 23/11/4 19/8/5 24/10/4
f 22/12/4 19/8/5 23/11/4
f 21/13/4 19/8/5 22/12/4
f 20/14/4 19/8/5 21/13/4
f 44/15/7 46/16/8 45/17/8
f 44/15/7 47/18/8 46/16/8
f 44/15/7 48/19/8 47/18/8
f 44/15/7 25/20/8 48/19/8
f 25/20/8 27/21/8 26/22/8
f 25/20/8 28/23/8 27/21/8
f 25/20/8 29/24/8 28/23/8
f 25/20/8 30/25/8 29/24/8
f 25/20/8 31/26/9 30/25/8
f 44/15/7 31/26/9 25/20/8
f 44/15/7 54/27/10 31/26/9
f 44/15/7 49/28/11 54/27/10
f 12/29/12 55/30/13 13/31/14
f 11/32/15 55/30/13 12/29/12
f 10/33/16 55/30/13 11/32/15
f 9/34/17 55/30/13 10/33/16
f 8/35/18 55/30/13 9/34/17
f 55/30/13 2/36/19 52/37/20
f 8/35/18 2/36/19 55/30/13
f 8/35/18 3/38/4 2/36/19
f 8/35/18 4/39/4 3/38/4
f 8/35/18 5/40/4 4/39/4
f 8/35/18 6/41/4 5/40/4
f 7/42/4 6/41/4 8/35/18
f 53/43/21 32/44/22 50/45/23
f 36/46/8 38/47/24 37/48/8
f 35/49/8 38/47/24 36/46/8
f 34/50/8 38/47/24 35/49/8
f 33/51/8 38/47/24 34/50/8
f 32/44/22 38/47/24 33/51/8
f 53/43/21 38/47/24 32/44/22
f 53/43/21 39/52/25 38/47/24
f 53/43/21 40/53/26 39/52/25
f 53/43/21 41/54/27 40/53/26
f 53/43/21 42/55/28 41/54/27
f 43/56/29 42/55/28 53/43/21
f 63/57/30 53/43/21 50/45/23
f 53/43/21 63/57/30 62/58/31
f 75/59/32 55/30/13 52/37/20
f 55/30/13 75/59/32 74/60/33
f 64/61/34 62/58/31 63/57/30
f 62/58/31 64/61/34 61/62/35
f 65/63/36 61/62/35 64/61/34
f 61/62/35 65/63/36 60/64/37
f 66/65/38 60/64/37 65/63/36
f 60/64/37 66/65/38 59/66/39
f 67/67/40 59/66/39 66/65/38
f 59/66/39 67/67/40 58/68/41
f 68/69/42 58/68/41 67/67/40
f 58/68/41 68/69/42 57/70/43
f 54/27/10 57/70/43 68/69/42
f 57/70/43 54/27/10 49/28/11
f 76/71/44 74/60/33 75/59/32
f 74/60/33 76/71/44 73/72/45
f 77/73/46 73/72/45 76/71/44
f 73/72/45 77/73/46 72/74/47
f 78/75/48 72/74/47 77/73/46
f 72/74/47 78/75/48 71/76/49
f 79/77/50 71/76/49 78/75/48
f 71/76/49 79/77/50 70/78/51
f 80/79/52 70/78/51 79/77/50
f 70/78/51 80/79/52 69/80/53
f 56/1/1 69/80/53 80/79/52
f 69/80/53 56/1/1 51/3/3
o Frame_网格.001
v 0.316864 0.006468 0.248940
v -0.322398 0.006467 0.248940
v -0.326373 0.006467 0.254260
v -0.328440 0.006467 0.259256
v -0.328944 0.006467 0.264258
v -0.327913 0.006467 0.269565
v -0.325090 0.006467 0.275544
v -0.322508 0.006467 0.279810
v -0.318700 0.006467 0.284766
v -0.315080 0.006467 0.287339
v -0.311396 0.006467 0.288199
v -0.307011 0.006467 0.287495
v -0.301427 0.006467 0.284750
v 0.295892 0.006468 0.284751
v 0.301476 0.006468 0.287495
v 0.305861 0.006468 0.288200
v 0.309545 0.006468 0.287339
v 0.313165 0.006468 0.284766
v 0.316973 0.006468 0.279811
v 0.319555 0.006468 0.275544
v 0.322378 0.006468 0.269565
v 0.323409 0.006468 0.264259
v 0.322905 0.006468 0.259256
v 0.320839 0.006468 0.254261
v 0.319555 0.016049 0.275544
v 0.316973 0.016049 0.279811
v 0.313165 0.016049 0.284766
v 0.309545 0.016049 0.287339
v 0.305861 0.016049 0.288200
v 0.301476 0.016049 0.287495
v 0.295892 0.016049 0.284751
v -0.301427 0.016048 0.284750
v -0.307011 0.016048 0.287495
v -0.311396 0.016048 0.288199
v -0.315080 0.016048 0.287339
v -0.318700 0.016048 0.284766
v -0.322508 0.016048 0.279810
v -0.325090 0.016048 0.275544
v -0.327913 0.016048 0.269565
v -0.328944 0.016048 0.264258
v -0.328440 0.016048 0.259256
v -0.326373 0.016048 0.254260
v -0.322398 0.016048 0.248940
v 0.316864 0.016049 0.248940
v 0.320839 0.016049 0.254261
v 0.322905 0.016049 0.259256
v 0.323409 0.016049 0.264259
v 0.322378 0.016049 0.269565
v 0.017256 0.021300 -0.080753
v -0.027737 0.036730 0.107664
v 0.022180 -0.019489 0.107649
v -0.022789 0.013144 -0.080755
v -0.022791 0.021300 -0.080753
v 0.022202 0.036730 0.107664
v -0.027714 -0.019489 0.107649
v 0.017254 0.013144 -0.080755
v 0.011535 0.021351 -0.086149
v 0.005814 0.021386 -0.089747
v 0.000093 0.021403 -0.091545
v -0.005628 0.021403 -0.091545
v -0.011349 0.021385 -0.089747
v -0.017070 0.021351 -0.086149
v -0.020603 0.037115 0.103707
v -0.013469 0.037371 0.101069
v -0.006334 0.037499 0.099750
v 0.000800 0.037499 0.099750
v 0.007934 0.037371 0.101069
v 0.015068 0.037115 0.103707
v 0.015052 -0.020003 0.103696
v 0.007924 -0.020346 0.101061
v 0.000797 -0.020518 0.099743
v -0.006331 -0.020518 0.099743
v -0.013459 -0.020347 0.101061
v -0.020587 -0.020003 0.103696
v -0.017068 0.013238 -0.086151
v -0.011348 0.013300 -0.089748
v -0.005627 0.013332 -0.091547
v 0.000093 0.013332 -0.091547
v 0.005813 0.013300 -0.089748
v 0.011534 0.013238 -0.086151
vt 0.000000 0.000000
vt 0.000000 0.000000
vt 0.000000 0.000000
vt 0.000000 0.000000
vt 0.000000 0.000000
vt 0.000000 0.000000
vt 0.000000 0.000000
vt 0.000000 0.000000
vt 0.000000 0.000000
vt 0.000000 0.000000
vt 0.000000 0.000000
vt 0.000000 0.000000
vt 0.000000 0.000000
vt 0.000000 0.000000
vt 0.000000 0.000000
vt 0.000000 0.000000
vt 0.000000 0.000000
vt 0.000000 0.000000
vt 0.000000 0.000000
vt 0.000000 0.000000
vt 0.000000 0.000000
vt 0.000000 0.000000
vt 0.000000 0.000000
vt 0.000000 0.000000
vt 0.000000 0.000000
vt 0.000000 0.000000
vt 0.000000 0.000000
vt 0.000000 0.000000
vt 0.000000 0.000000
vt 0.000000 0.000000
vt 0.000000 0.000000
vt 0.000000 0.000000
vt 0.000000 0.000000
vt 0.000000 0.000000
vt 0.000000 0.000000
vt 0.000000 0.000000
vt 0.000000 0.000000
vt 0.000000 0.000000
vt 0.000000 0.000000
vt 0.000000 0.000000
vt 0.000000 0.000000
vt 0.000000 0.000000
vt 0.000000 0.000000
vt 0.000000 0.000000
vt 0.000000 0.000000
vt 0.000000 0.000000
vt 0.000000 0.000000
vt 0.000000 0.000000
vt 0.000000 0.000000
vt 0.000000 0.000000
vt 0.000000 0.000000
vt 0.000000 0.000000
vt 0.000000 0.000000
vt 0.000000 0.000000
vt 0.000000 0.000000
vt 0.000000 0.000000
vt 0.000000 0.000000
vt 0.000000 0.000000
vt 0.000000 0.000000
vt 0.000000 0.000000
vt 0.000000 0.000000
vt 0.000000 0.000000
vt 0.000000 0.000000
vt 0.000000 0.000000
vt 0.000000 0.000000
vt 0.000000 0.000000
vt 0.000000 0.000000
vt 0.000000 0.000000
vt 0.000000 0.000000
vt 0.785796 0.984297
vt 0.778199 0.990135
vt 0.000000 0.000000
vt 0.000000 0.000000
vt 0.000000 0.000000
vt 0.000000 0.000000
vt 0.000000 0.000000
vt 0.000000 0.000000
vt 0.000000 0.000000
vt 0.000000 0.000000
vt 0.000000 0.000000
vt 0.000000 0.000000
vt 0.771660 0.994093
vn -0.5432 -0.0000 0.8396
vn 0.4411 0.0000 0.8975
vn -0.9043 -0.0000 0.4270
vn -0.9661 -0.0000 -0.2583
vn -0.7401 -0.0000 -0.6725
vn -0.6862 0.0000 -0.7275
vn 0.7401 0.0000 -0.6725
vn -0.3270 -0.0000 0.9450
vn 0.4254 0.0000 0.9050
vn 0.7929 0.0000 0.6093
vn 0.8555 0.0000 0.5178
vn 0.9043 0.0000 0.4270
vn 0.9817 0.0000 0.1906
vn 0.9950 0.0000 -0.1001
vn 0.9240 0.0000 -0.3823
vn 0.8011 0.0000 -0.5985
vn 0.5432 0.0000 0.8396
vn 0.4850 -0.0000 0.8745
vn 0.3468 -0.0001 0.9379
vn 0.1818 -0.0001 0.9833
vn 0.0000 -0.0001 1.0000
vn -0.1818 -0.0001 0.9833
vn -0.3468 -0.0001 0.9379
vn -0.4850 -0.0000 0.8745
vn 0.1586 0.0000 0.9873
vn -0.2274 -0.0000 0.9738
vn -0.5794 -0.0000 0.8150
vn -0.7929 -0.0000 0.6093
vn -0.8555 -0.0000 0.5178
vn -0.5323 0.0001 -0.8465
vn -0.2999 0.0001 -0.9540
vn 0.0000 0.0001 -1.0000
vn 0.2999 0.0001 -0.9540
vn 0.5323 0.0001 -0.8465
vn 0.6862 0.0000 -0.7275
vn 0.0000 -1.0000 -0.0000
vn -0.0084 -1.0000 0.0028
usemtl 纹理2
s off
f 131/81/54 94/82/54 111/83/54 134/84/54
f 92/85/55 93/86/55 112/87/55 113/88/55
f 86/89/56 87/90/56 118/91/56 119/92/56
f 82/93/57 83/94/57 84/95/57 85/96/57 86/89/57 119/92/57 120/97/57 121/98/57 122/99/57 123/100/57
f 132/101/58 82/93/58 123/100/58 133/102/58
f 133/102/59 142/103/59 155/104/59 132/101/59
f 81/105/60 136/106/60 129/107/60 124/108/60
f 94/82/61 95/109/61 96/110/61 109/111/61 110/112/61 111/83/61
f 96/110/62 97/113/62 98/114/62 107/115/62 108/116/62 109/111/62
f 98/114/63 99/117/63 106/118/63 107/115/63
f 99/117/64 100/119/64 105/120/64 106/118/64
f 100/119/65 101/121/65 128/122/65 105/120/65
f 101/121/66 102/123/66 127/124/66 128/122/66
f 102/123/67 103/125/67 126/126/67 127/124/67
f 103/125/68 104/127/68 125/128/68 126/126/68
f 104/127/69 81/105/69 124/108/69 125/128/69
f 93/86/70 135/129/70 130/130/70 112/87/70
f 143/131/71 130/130/71 135/129/71 154/132/71
f 144/133/72 143/131/72 154/132/72 153/134/72
f 145/135/73 144/133/73 153/134/73 152/136/73
f 146/137/74 145/135/74 152/136/74 151/138/74
f 147/139/75 146/137/75 151/138/75 150/140/75
f 148/141/76 147/139/76 150/140/76 149/142/76
f 134/84/77 148/141/77 149/142/77 131/81/77
f 91/143/78 92/85/78 113/88/78 114/144/78
f 90/145/79 91/143/79 114/144/79 115/146/79
f 89/147/80 90/145/80 115/146/80 116/148/80
f 88/149/81 89/147/81 116/150/81 117/151/81
f 87/90/82 88/149/82 117/151/82 118/91/82
f 142/103/83 141/152/83 156/153/83 155/104/83
f 141/152/84 140/154/84 157/155/84 156/153/84
f 140/154/85 139/156/85 158/157/85 157/155/85
f 139/156/86 138/158/86 159/159/86 158/157/86
f 138/158/87 137/160/87 160/161/87 159/159/87
f 137/160/88 129/107/88 136/106/88 160/161/88
s 1
f 116/150/89 117/151/89 118/162/90
l 135 92
l 86 88
