# Blender v2.93.5 OBJ File: '自改20230329.blend'
# www.blender.org
mtllib destination.mtl
o 对象006_网格.031
v -0.168400 0.185441 0.000002
v -0.056080 0.047798 0.000002
v -0.248570 0.300342 0.000002
v -0.040935 0.031252 0.000002
v -0.324100 0.422698 0.000002
v -0.030080 0.020877 0.000002
v -0.392463 0.548950 0.000002
v -0.019226 0.013466 0.000002
v -0.451130 0.675539 0.000002
v -0.008371 0.009019 0.000002
v -0.497577 0.798905 0.000002
v 0.002482 0.007537 0.000002
v -0.513888 0.864354 0.000002
v 0.013337 0.009019 0.000002
v -0.522133 0.933882 0.000002
v 0.024191 0.013466 0.000002
v -0.522747 1.004903 0.000002
v 0.035046 0.020877 0.000002
v -0.516164 1.074834 0.000002
v 0.045899 0.031252 0.000002
v -0.502818 1.141090 0.000002
v 0.198938 0.797614 0.100945
v -0.193973 0.797614 0.100945
v 0.061046 0.047798 0.000002
v -0.483144 1.201086 0.000002
v -0.193973 0.797615 -0.100942
v 0.198938 0.797615 -0.100942
v 0.183160 1.248673 0.100767
v -0.178194 1.248673 0.100767
v -0.172242 0.987357 0.100870
v -0.170934 1.008149 0.100862
v -0.167030 1.028612 0.100854
v -0.160592 1.048425 0.100846
v -0.151722 1.067275 0.100839
v -0.140560 1.084864 0.100832
v -0.127281 1.100916 0.100826
v -0.112095 1.115176 0.100820
v -0.095241 1.127421 0.100815
v -0.076985 1.137457 0.100811
v -0.057616 1.145126 0.100808
v -0.037438 1.150307 0.100806
v -0.016770 1.152918 0.100805
v 0.004063 1.152918 0.100805
v 0.024731 1.150307 0.100806
v 0.044909 1.145126 0.100808
v 0.064278 1.137457 0.100811
v 0.082533 1.127421 0.100815
v 0.099387 1.115176 0.100820
v 0.114573 1.100915 0.100826
v 0.127852 1.084864 0.100832
v 0.139015 1.067275 0.100839
v 0.147884 1.048425 0.100846
v 0.154322 1.028612 0.100854
v 0.158226 1.008149 0.100862
v 0.159534 0.987357 0.100870
v 0.158226 0.966566 0.100878
v 0.154322 0.946103 0.100886
v 0.147884 0.926290 0.100894
v 0.139015 0.907440 0.100902
v 0.127852 0.889851 0.100909
v 0.114573 0.873799 0.100915
v 0.099387 0.859539 0.100921
v 0.082533 0.847294 0.100925
v 0.064278 0.837258 0.100929
v 0.044908 0.829589 0.100932
v 0.024730 0.824408 0.100935
v 0.004062 0.821797 0.100935
v -0.016770 0.821797 0.100935
v -0.037438 0.824408 0.100935
v -0.057616 0.829589 0.100932
v -0.076985 0.837258 0.100929
v -0.095241 0.847294 0.100925
v -0.112095 0.859539 0.100921
v -0.127281 0.873800 0.100915
v -0.140560 0.889851 0.100909
v -0.151722 0.907441 0.100902
v -0.160593 0.926291 0.100894
v -0.167030 0.946103 0.100886
v -0.170934 0.966567 0.100878
v 0.173366 0.185441 0.000002
v -0.457651 1.252352 0.000002
v -0.178194 1.248673 -0.100764
v 0.183160 1.248673 -0.100764
v -0.172242 0.987358 -0.100867
v -0.170934 0.966567 -0.100875
v -0.167030 0.946103 -0.100883
v -0.160593 0.926291 -0.100891
v -0.151722 0.907441 -0.100898
v -0.140560 0.889852 -0.100905
v -0.127281 0.873800 -0.100912
v -0.112095 0.859539 -0.100917
v -0.095241 0.847294 -0.100922
v -0.076985 0.837258 -0.100926
v -0.057616 0.829589 -0.100929
v -0.037438 0.824408 -0.100931
v -0.016770 0.821797 -0.100932
v 0.004062 0.821797 -0.100932
v 0.024730 0.824408 -0.100931
v 0.044908 0.829589 -0.100929
v 0.064278 0.837258 -0.100926
v 0.082533 0.847294 -0.100922
v 0.099387 0.859539 -0.100917
v 0.114573 0.873800 -0.100912
v 0.127852 0.889851 -0.100905
v 0.139015 0.907440 -0.100898
v 0.147884 0.926290 -0.100891
v 0.154322 0.946103 -0.100883
v 0.158226 0.966566 -0.100875
v 0.159534 0.987357 -0.100867
v 0.158226 1.008149 -0.100859
v 0.154322 1.028612 -0.100851
v 0.147884 1.048425 -0.100843
v 0.139015 1.067275 -0.100835
v 0.127852 1.084864 -0.100829
v 0.114573 1.100915 -0.100822
v 0.099387 1.115176 -0.100816
v 0.082533 1.127421 -0.100812
v 0.064278 1.137457 -0.100808
v 0.044909 1.145126 -0.100805
v 0.024731 1.150307 -0.100803
v 0.004063 1.152918 -0.100802
v -0.016770 1.152918 -0.100802
v -0.037438 1.150307 -0.100803
v -0.057616 1.145126 -0.100805
v -0.076985 1.137457 -0.100808
v -0.095241 1.127421 -0.100812
v -0.112095 1.115176 -0.100816
v -0.127281 1.100916 -0.100822
v -0.140560 1.084864 -0.100829
v -0.151722 1.067275 -0.100835
v -0.160592 1.048425 -0.100843
v -0.167030 1.028612 -0.100851
v -0.170934 1.008149 -0.100859
v 0.253536 0.300342 0.000002
v -0.413645 1.323714 0.000002
v 0.329066 0.422698 0.000002
v -0.352277 1.385194 0.000002
v 0.397428 0.548950 0.000002
v -0.293841 1.427651 0.000002
v 0.456096 0.675539 0.000002
v -0.230544 1.462448 0.000002
v 0.502542 0.798905 0.000002
v -0.163385 1.489038 0.000002
v 0.527712 1.004903 0.000002
v 0.521129 1.074834 0.000002
v 0.507783 1.141090 0.000002
v 0.488110 1.201086 0.000002
v 0.518853 0.864354 0.000002
v -0.093423 1.507002 0.000002
v 0.527098 0.933882 0.000002
v 0.462616 1.252352 0.000002
v 0.002482 1.516055 0.000002
v 0.418610 1.323714 0.000002
v 0.298806 1.427651 0.000002
v 0.357243 1.385194 0.000002
v 0.235509 1.462448 0.000002
v 0.168350 1.489038 0.000002
v 0.098388 1.507002 0.000002
v -0.168400 0.185441 0.095741
v -0.056080 0.047798 0.095741
v -0.248570 0.300342 0.095741
v -0.168400 0.185441 -0.095737
v -0.056080 0.047798 -0.095737
v -0.040935 0.031252 0.095741
v -0.324100 0.422698 0.095741
v -0.248570 0.300342 -0.095737
v -0.040935 0.031252 -0.095737
v -0.030080 0.020877 0.095741
v -0.392463 0.548950 0.095741
v -0.324100 0.422698 -0.095737
v -0.030080 0.020877 -0.095737
v -0.019226 0.013466 0.095741
v -0.451130 0.675539 0.095741
v -0.392463 0.548950 -0.095737
v -0.019226 0.013466 -0.095737
v -0.008371 0.009019 0.095741
v -0.497577 0.798905 0.095741
v -0.451130 0.675539 -0.095737
v -0.008371 0.009019 -0.095737
v 0.002482 0.007537 0.095741
v -0.513888 0.864354 0.095741
v -0.497577 0.798905 -0.095737
v 0.002482 0.007537 -0.095737
v 0.013337 0.009019 0.095741
v -0.522133 0.933882 0.095741
v -0.513888 0.864354 -0.095737
v 0.013337 0.009019 -0.095737
v 0.024191 0.013466 0.095741
v -0.522747 1.004903 0.095741
v -0.522133 0.933882 -0.095737
v 0.024191 0.013466 -0.095737
v 0.035046 0.020877 0.095741
v -0.163183 0.194448 0.100945
v -0.241410 0.307897 0.100945
v -0.315112 0.427947 0.100945
v -0.382344 0.551389 0.100945
v -0.440722 0.675575 0.100945
v -0.516164 1.074834 0.095741
v -0.522747 1.004903 -0.095737
v 0.035046 0.020877 -0.095737
v -0.055284 0.058176 0.100945
v -0.008227 0.019427 0.100945
v -0.018938 0.023870 0.100945
v 0.045899 0.031252 0.095741
v -0.487249 0.797614 0.100945
v -0.502818 1.141090 0.095741
v -0.516164 1.074834 -0.095737
v -0.163183 0.194448 -0.100942
v -0.241410 0.307897 -0.100942
v -0.315112 0.427947 -0.100942
v -0.382344 0.551389 -0.100942
v -0.440722 0.675575 -0.100942
v -0.055284 0.058176 -0.100942
v -0.018938 0.023870 -0.100942
v -0.008227 0.019427 -0.100942
v 0.045899 0.031252 -0.095737
v -0.040369 0.041645 0.100945
v 0.002482 0.017945 0.100945
v -0.029652 0.031276 0.100945
v 0.013192 0.019427 0.100945
v 0.023903 0.023870 0.100945
v 0.034617 0.031276 0.100945
v 0.045334 0.041645 0.100945
v 0.060249 0.058176 0.100945
v 0.168148 0.194448 0.100945
v 0.246376 0.307897 0.100945
v 0.320077 0.427947 0.100945
v 0.387309 0.551389 0.100945
v 0.445687 0.675575 0.100945
v 0.492214 0.797614 0.100945
v 0.061046 0.047798 0.095741
v -0.503630 0.862593 0.100945
v -0.483144 1.201086 0.095741
v -0.502818 1.141090 -0.095737
v -0.487249 0.797615 -0.100942
v -0.040369 0.041645 -0.100942
v 0.002482 0.017945 -0.100942
v -0.029652 0.031276 -0.100942
v 0.492214 0.797615 -0.100942
v 0.445687 0.675575 -0.100942
v 0.387309 0.551389 -0.100942
v 0.320077 0.427947 -0.100942
v 0.246376 0.307897 -0.100942
v 0.168148 0.194448 -0.100942
v 0.060249 0.058176 -0.100942
v 0.045334 0.041645 -0.100942
v 0.034617 0.031276 -0.100942
v 0.023903 0.023870 -0.100942
v 0.013192 0.019427 -0.100942
v 0.061046 0.047798 -0.095737
v 0.508595 0.862593 0.100945
v 0.516924 0.931684 0.100945
v 0.517632 1.002310 0.100945
v 0.511144 1.071897 0.100945
v 0.497884 1.137874 0.100945
v 0.478275 1.197677 0.100945
v -0.447915 1.248673 0.100767
v -0.492919 1.137874 0.100945
v -0.506178 1.071897 0.100945
v -0.512667 1.002310 0.100945
v -0.511959 0.931684 0.100945
v 0.173366 0.185441 0.095741
v -0.457651 1.252352 0.095563
v -0.483144 1.201086 -0.095737
v -0.503630 0.862593 -0.100942
v -0.511959 0.931684 -0.100942
v -0.512667 1.002310 -0.100942
v -0.506178 1.071897 -0.100942
v -0.492919 1.137874 -0.100942
v -0.473310 1.197677 -0.100942
v 0.452880 1.248673 -0.100764
v 0.497884 1.137874 -0.100942
v 0.511144 1.071897 -0.100942
v 0.517632 1.002310 -0.100942
v 0.516924 0.931684 -0.100942
v 0.508595 0.862593 -0.100942
v 0.173366 0.185441 -0.095737
v 0.452880 1.248673 0.100767
v 0.410109 1.317709 0.100590
v -0.405144 1.317709 0.100590
v 0.253536 0.300342 0.095741
v -0.413645 1.323714 0.095385
v -0.457651 1.252352 -0.095560
v -0.447915 1.248673 -0.100764
v -0.405144 1.317709 -0.100586
v 0.410109 1.317709 -0.100586
v 0.253536 0.300342 -0.095737
v 0.350608 1.377174 0.100590
v 0.293229 1.418863 0.100590
v 0.231078 1.453031 0.100590
v 0.165134 1.479140 0.100590
v 0.096437 1.496778 0.100590
v 0.002482 1.505647 0.100590
v -0.091473 1.496778 0.100590
v -0.160169 1.479140 0.100590
v -0.226112 1.453031 0.100590
v -0.288264 1.418863 0.100590
v -0.345643 1.377174 0.100590
v 0.329066 0.422698 0.095741
v -0.413645 1.323714 -0.095382
v -0.352277 1.385194 0.095385
v -0.345643 1.377174 -0.100586
v -0.288264 1.418863 -0.100586
v -0.226112 1.453031 -0.100586
v -0.160169 1.479140 -0.100586
v -0.091473 1.496778 -0.100586
v 0.002482 1.505647 -0.100586
v 0.096437 1.496778 -0.100586
v 0.165134 1.479140 -0.100586
v 0.231078 1.453031 -0.100586
v 0.293229 1.418863 -0.100586
v 0.350608 1.377174 -0.100586
v 0.329066 0.422698 -0.095737
v 0.397428 0.548950 0.095741
v -0.352277 1.385194 -0.095382
v -0.293841 1.427651 0.095385
v 0.397428 0.548950 -0.095737
v 0.456096 0.675539 0.095741
v -0.293841 1.427651 -0.095382
v -0.230544 1.462448 0.095385
v 0.456096 0.675539 -0.095737
v 0.527712 1.004903 0.095741
v 0.521129 1.074834 0.095741
v 0.507783 1.141090 0.095741
v 0.488110 1.201086 0.095741
v 0.502542 0.798905 0.095741
v -0.230544 1.462448 -0.095382
v -0.163385 1.489038 0.095385
v 0.507783 1.141090 -0.095737
v 0.521129 1.074834 -0.095737
v 0.527712 1.004903 -0.095737
v 0.502542 0.798905 -0.095737
v 0.527098 0.933882 0.095741
v 0.462616 1.252352 0.095563
v 0.518853 0.864354 0.095741
v -0.163385 1.489038 -0.095382
v -0.093423 1.507002 0.095385
v 0.462616 1.252352 -0.095560
v 0.488110 1.201086 -0.095737
v 0.527098 0.933882 -0.095737
v 0.518853 0.864354 -0.095737
v 0.418610 1.323714 0.095385
v 0.357243 1.385194 0.095385
v 0.298806 1.427651 0.095385
v 0.235509 1.462448 0.095385
v 0.168350 1.489038 0.095385
v 0.098388 1.507002 0.095385
v 0.002482 1.516055 0.095385
v -0.093423 1.507002 -0.095382
v 0.002482 1.516055 -0.095382
v 0.098388 1.507002 -0.095382
v 0.168350 1.489038 -0.095382
v 0.235509 1.462448 -0.095382
v 0.298806 1.427651 -0.095382
v 0.357243 1.385194 -0.095382
v 0.418610 1.323714 -0.095382
vt 0.000000 0.000000
vt 0.000000 0.000000
vt 0.000000 0.000000
vt 0.000000 0.000000
vt 0.000000 0.000000
vt 0.000000 0.000000
vt 0.000000 0.000000
vt 0.000000 0.000000
vt 0.000000 0.000000
vt 0.000000 0.000000
vt 0.000000 0.000000
vt 0.000000 0.000000
vt 0.000000 0.000000
vt 0.000000 0.000000
vt 0.000000 0.000000
vt 0.000000 0.000000
vt 0.000000 0.000000
vt 0.000000 0.000000
vt 0.000000 0.000000
vt 0.000000 0.000000
vt 0.000000 0.000000
vt 0.000000 0.000000
vt 0.000000 0.000000
vt 0.000000 0.000000
vt 0.000000 0.000000
vt 0.000000 0.000000
vt 0.000000 0.000000
vt 0.000000 0.000000
vt 0.000000 0.000000
vt 0.000000 0.000000
vt 0.000000 0.000000
vt 0.000000 0.000000
vt 0.000000 0.000000
vt 0.000000 0.000000
vt 0.000000 0.000000
vt 0.000000 0.000000
vt 0.000000 0.000000
vt 0.000000 0.000000
vt 0.000000 0.000000
vt 0.000000 0.000000
vt 0.000000 0.000000
vt 0.000000 0.000000
vt 0.000000 0.000000
vt 0.000000 0.000000
vt 0.000000 0.000000
vt 0.000000 0.000000
vt 0.000000 0.000000
vt 0.000000 0.000000
vt 0.000000 0.000000
vt 0.000000 0.000000
vt 0.000000 0.000000
vt 0.000000 0.000000
vt 0.000000 0.000000
vt 0.000000 0.000000
vt 0.000000 0.000000
vt 0.000000 0.000000
vt 0.000000 0.000000
vt 0.000000 0.000000
vt 0.000000 0.000000
vt 0.000000 0.000000
vt 0.000000 0.000000
vt 0.000000 0.000000
vt 0.000000 0.000000
vt 0.000000 0.000000
vt 0.000000 0.000000
vt 0.000000 0.000000
vt 0.000000 0.000000
vt 0.000000 0.000000
vt 0.000000 0.000000
vt 0.000000 0.000000
vt 0.000000 0.000000
vt 0.000000 0.000000
vt 0.000000 0.000000
vt 0.000000 0.000000
vt 0.000000 0.000000
vt 0.000000 0.000000
vt 0.000000 0.000000
vt 0.000000 0.000000
vt 0.000000 0.000000
vt 0.000000 0.000000
vt 0.000000 0.000000
vt 0.000000 0.000000
vt 0.000000 0.000000
vt 0.000000 0.000000
vt 0.000000 0.000000
vt 0.000000 0.000000
vt 0.000000 0.000000
vt 0.000000 0.000000
vt 0.000000 0.000000
vt 0.000000 0.000000
vt 0.000000 0.000000
vt 0.000000 0.000000
vt 0.000000 0.000000
vt 0.000000 0.000000
vt 0.000000 0.000000
vt 0.000000 0.000000
vt 0.000000 0.000000
vt 0.000000 0.000000
vt 0.000000 0.000000
vt 0.000000 0.000000
vt 0.000000 0.000000
vt 0.000000 0.000000
vt 0.000000 0.000000
vt 0.000000 0.000000
vt 0.000000 0.000000
vt 0.000000 0.000000
vt 0.000000 0.000000
vt 0.000000 0.000000
vt 0.000000 0.000000
vt 0.000000 0.000000
vt 0.000000 0.000000
vt 0.000000 0.000000
vt 0.000000 0.000000
vt 0.000000 0.000000
vt 0.000000 0.000000
vt 0.000000 0.000000
vt 0.000000 0.000000
vt 0.000000 0.000000
vt 0.000000 0.000000
vt 0.000000 0.000000
vt 0.000000 0.000000
vt 0.000000 0.000000
vt 0.000000 0.000000
vt 0.000000 0.000000
vt 0.044774 0.267933
vt 0.104760 0.626892
vt 0.042991 0.257262
vt 0.047711 0.285509
vt 0.052142 0.312022
vt 0.056175 0.336155
vt 0.059705 0.357282
vt 0.062632 0.374795
vt 0.064859 0.388123
vt 0.066306 0.396782
vt 0.066921 0.400460
vt 0.066695 0.399108
vt 0.065668 0.392964
vt 0.063920 0.382502
vt 0.061551 0.368330
vt 0.058677 0.351127
vt 0.055416 0.331614
vt 0.051895 0.310544
vt 0.048241 0.288679
vt 0.044575 0.266741
vt 0.040997 0.245332
vt 0.037577 0.224862
vt 0.034347 0.205538
vt 0.031320 0.187420
vt 0.028492 0.170497
vt 0.025858 0.154736
vt 0.038092 0.227946
vt 0.033131 0.198259
vt 0.028232 0.168945
vt 0.023531 0.140810
vt 0.019169 0.114711
vt 0.015286 0.091473
vt 0.011982 0.071700
vt 0.009292 0.055604
vt 0.007196 0.043063
vt 0.005655 0.033838
vt 0.004629 0.027702
vt 0.004088 0.024465
vt 0.004002 0.023948
vt 0.004337 0.025952
vt 0.005051 0.030229
vt 0.006091 0.036452
vt 0.007387 0.044205
vt 0.008855 0.052992
vt 0.010415 0.062326
vt 0.012014 0.071891
vt 0.013644 0.081649
vt 0.015337 0.091775
vt 0.017131 0.102511
vt 0.019061 0.114060
vt 0.021150 0.126562
vt 0.023413 0.140103
vt 0.149534 0.894825
vt 0.000000 0.000000
vt 0.000000 0.000000
vt 0.000000 0.000000
vt 0.000000 0.000000
vt 0.000000 0.000000
vt 0.000000 0.000000
vt 0.000000 0.000000
vt 0.000000 0.000000
vt 0.000000 0.000000
vt 0.000000 0.000000
vt 0.000000 0.000000
vt 0.000000 0.000000
vt 0.000000 0.000000
vt 0.000000 0.000000
vt 0.000000 0.000000
vt 0.000000 0.000000
vt 0.044774 0.261240
vt 0.019912 0.116181
vt 0.017919 0.104549
vt 0.016096 0.093913
vt 0.014426 0.084170
vt 0.012879 0.075142
vt 0.011409 0.066567
vt 0.009971 0.058176
vt 0.008547 0.049870
vt 0.007178 0.041880
vt 0.005946 0.034695
vt 0.004946 0.028856
vt 0.004253 0.024817
vt 0.003929 0.022923
vt 0.004015 0.023426
vt 0.004546 0.026523
vt 0.005549 0.032374
vt 0.007051 0.041140
vt 0.009082 0.052993
vt 0.011674 0.068111
vt 0.014841 0.086595
vt 0.018564 0.108316
vt 0.022765 0.132825
vt 0.027322 0.159412
vt 0.032096 0.187268
vt 0.036950 0.215589
vt 0.104759 0.611233
vt 0.041753 0.243615
vt 0.046383 0.270629
vt 0.050722 0.295943
vt 0.054656 0.318899
vt 0.058077 0.338860
vt 0.060881 0.355217
vt 0.062973 0.367424
vt 0.064280 0.375050
vt 0.064762 0.377861
vt 0.064423 0.375883
vt 0.063311 0.369398
vt 0.061508 0.358875
vt 0.059113 0.344901
vt 0.056238 0.328128
vt 0.053004 0.309259
vt 0.049538 0.289037
vt 0.045969 0.268213
vt 0.042416 0.247482
vt 0.038971 0.227383
vt 0.035691 0.208241
vt 0.032596 0.190188
vt 0.029692 0.173241
vt 0.026973 0.157380
vt 0.024438 0.142587
vt 0.022084 0.128855
vt 0.149534 0.872473
vt 0.000000 0.000000
vt 0.000000 0.000000
vt 0.000000 0.000000
vt 0.000000 0.000000
vt 0.000000 0.000000
vt 0.000000 0.000000
vt 0.000000 0.000000
vt 0.130149 0.881073
vt 0.129596 0.901601
vt 0.000000 0.000000
vt 0.000000 0.000000
vt 0.150000 0.973473
vt 0.130000 0.973449
vt 0.130000 0.486725
vt 0.150000 0.486737
vt 0.000000 0.000000
vt 0.000000 0.000000
vt 0.130149 0.901986
vt 0.129596 0.881458
vt 0.000000 0.000000
vt 0.110228 0.882501
vt 0.090181 0.880475
vt 0.070181 0.880475
vt 0.050181 0.880475
vt 0.030181 0.880475
vt 0.010203 0.883229
vt 0.029796 0.901504
vt 0.049819 0.904512
vt 0.069819 0.904512
vt 0.089819 0.904512
vt 0.109819 0.904513
vt 0.000000 0.000000
vt 0.000000 0.000000
vt 0.130000 0.973449
vt 0.150000 0.973473
vt 0.110000 0.973449
vt 0.110000 0.486725
vt 0.110228 0.902487
vt 0.090181 0.904512
vt 0.070181 0.904512
vt 0.050181 0.904512
vt 0.030181 0.904512
vt 0.010203 0.901288
vt 0.029796 0.883483
vt 0.049819 0.880475
vt 0.069819 0.880475
vt 0.089819 0.880475
vt 0.109819 0.880475
vt 0.000000 0.000000
vt 0.000000 0.000000
vt 0.000000 0.000000
vt 0.110000 0.973449
vt 0.090000 0.973449
vt 0.090000 0.486725
vt 0.000000 0.000000
vt 0.000000 0.000000
vt 0.000000 0.000000
vt 0.090000 0.973449
vt 0.070000 0.973449
vt 0.070000 0.486725
vt 0.000000 0.000000
vt 0.000000 0.000000
vt 0.000000 0.000000
vt 0.070000 0.973449
vt 0.050000 0.973449
vt 0.050000 0.486725
vt 0.000000 0.000000
vt 0.000000 0.000000
vt 0.000000 0.000000
vt 0.000000 0.000000
vt 0.000000 0.000000
vt 0.000000 0.000000
vt 0.000000 0.000000
vt 0.000000 0.000000
vt 0.000000 0.000000
vt 0.000000 0.000000
vt 0.000000 0.000000
vt 0.050000 0.973449
vt 0.030000 0.973449
vt 0.030000 0.486725
vt 0.000000 0.000000
vt 0.000000 0.000000
vt 0.000000 0.000000
vt 0.000000 0.000000
vt 0.000000 0.000000
vt 0.000000 0.000000
vt 0.000000 0.000000
vt 0.000000 0.000000
vt 0.000000 0.000000
vt 0.030000 0.973449
vt 0.010000 0.973449
vt 0.010000 0.486725
vt 0.000000 0.000000
vt 0.000000 0.000000
vt 0.130000 0.973449
vt 0.150000 0.973473
vt 0.150000 0.486737
vt 0.130000 0.486725
vt 0.090000 0.973449
vt 0.110000 0.973449
vt 0.110000 0.486725
vt 0.090000 0.486725
vt 0.070000 0.973449
vt 0.070000 0.486725
vt 0.050000 0.973449
vt 0.050000 0.486725
vt 0.030000 0.973449
vt 0.030000 0.486725
vt 0.010000 0.973449
vt 0.030000 0.973449
vt 0.050000 0.973449
vt 0.070000 0.973449
vt 0.090000 0.973449
vt 0.110000 0.973449
vt 0.150000 0.973473
vt 0.130000 0.973449
vt 0.750000 0.326104
vt 0.750000 0.825278
vt 0.770000 0.825258
vt 0.770000 0.326124
vt 0.790000 0.825238
vt 0.790000 0.326144
vt 0.730000 0.326084
vt 0.730000 0.825298
vt 0.810000 0.825218
vt 0.810000 0.326163
vt 0.710000 0.326064
vt 0.710000 0.825318
vt 0.830000 0.825200
vt 0.830000 0.326182
vt 0.690000 0.326044
vt 0.690000 0.825337
vt 0.850000 0.825183
vt 0.850000 0.326199
vt 0.670000 0.326026
vt 0.670000 0.825356
vt 0.870000 0.825167
vt 0.870000 0.326215
vt 0.650000 0.326009
vt 0.650000 0.825373
vt 0.890000 0.825153
vt 0.890000 0.326228
vt 0.630000 0.325993
vt 0.630000 0.825389
vt 0.910000 0.825141
vt 0.910000 0.326240
vt 0.610000 0.325979
vt 0.610000 0.825402
vt 0.930000 0.825131
vt 0.930000 0.326250
vt 0.590000 0.325967
vt 0.590000 0.825414
vt 0.950000 0.825124
vt 0.950000 0.326258
vt 0.570000 0.325957
vt 0.570000 0.825424
vt 0.970000 0.825119
vt 0.970000 0.326263
vt 0.550000 0.325950
vt 0.550000 0.825432
vt 0.990000 0.825116
vt 0.990000 0.326265
vt 0.530000 0.325945
vt 0.530000 0.825437
vt -0.010000 0.326265
vt -0.010000 0.825116
vt 0.010000 0.825116
vt 0.010000 0.326265
vt 0.510000 0.325942
vt 0.510000 0.825439
vt 0.030000 0.825119
vt 0.030000 0.326263
vt 0.490000 0.325942
vt 0.490000 0.825439
vt 0.050000 0.825124
vt 0.050000 0.326258
vt 0.470000 0.325945
vt 0.470000 0.825437
vt 0.070000 0.825131
vt 0.070000 0.326250
vt 0.450000 0.325950
vt 0.450000 0.825432
vt 0.090000 0.825141
vt 0.090000 0.326240
vt 0.430000 0.325957
vt 0.430000 0.825424
vt 0.110000 0.825153
vt 0.110000 0.326228
vt 0.410000 0.325967
vt 0.410000 0.825414
vt 0.130000 0.825167
vt 0.130000 0.326215
vt 0.390000 0.325979
vt 0.390000 0.825402
vt 0.150000 0.825183
vt 0.150000 0.326199
vt 0.370000 0.325993
vt 0.370000 0.825389
vt 0.170000 0.825200
vt 0.170000 0.326182
vt 0.350000 0.326009
vt 0.350000 0.825373
vt 0.190000 0.825218
vt 0.190000 0.326163
vt 0.330000 0.326026
vt 0.330000 0.825356
vt 0.210000 0.825238
vt 0.210000 0.326144
vt 0.310000 0.326044
vt 0.310000 0.825337
vt 0.230000 0.825258
vt 0.230000 0.326124
vt 0.290000 0.326064
vt 0.290000 0.825318
vt 0.250000 0.825278
vt 0.250000 0.326104
vt 0.270000 0.326084
vt 0.270000 0.825298
vn -0.7980 -0.6027 0.0000
vn -0.7565 -0.6540 0.0000
vn -0.8358 -0.5490 0.0000
vn -0.7147 -0.6994 0.0000
vn -0.8655 -0.5009 0.0000
vn -0.6295 -0.7770 0.0000
vn -0.8938 -0.4485 0.0000
vn -0.4741 -0.8805 0.0000
vn -0.9222 -0.3867 0.0000
vn -0.2593 -0.9658 0.0000
vn -0.9547 -0.2976 0.0000
vn -0.0000 -1.0000 0.0000
vn -0.9836 -0.1801 0.0000
vn 0.2593 -0.9658 0.0000
vn -0.9980 -0.0633 0.0000
vn 0.4741 -0.8805 0.0000
vn -0.9991 0.0426 0.0000
vn 0.6295 -0.7770 0.0000
vn -0.9893 0.1458 0.0000
vn 0.7147 -0.6994 0.0000
vn -0.9669 0.2550 0.0000
vn 0.0000 -0.0000 1.0000
vn 0.0001 -0.0002 1.0000
vn 0.0000 0.0002 1.0000
vn 0.0029 0.0001 1.0000
vn 0.7565 -0.6540 0.0000
vn -0.9253 0.3793 0.0000
vn -0.9252 0.3794 0.0000
vn -0.0000 0.0000 -1.0000
vn 0.0001 0.0001 -1.0000
vn 0.0000 0.0002 -1.0000
vn -0.0029 0.0001 -1.0000
vn 0.0012 -0.0014 1.0000
vn 0.0001 -0.0008 1.0000
vn 0.0000 -0.0006 1.0000
vn -0.0000 0.0004 1.0000
vn 0.0001 0.0003 1.0000
vn -0.0003 0.0006 1.0000
vn 0.0078 -0.0016 1.0000
vn 0.0022 0.0029 1.0000
vn 0.0025 0.0002 1.0000
vn 0.7980 -0.6027 0.0000
vn -0.8742 0.4855 0.0000
vn -0.8742 0.4856 0.0000
vn -0.0012 -0.0015 -1.0000
vn -0.0001 -0.0008 -1.0000
vn -0.0000 0.0004 -1.0000
vn 0.0000 -0.0006 -1.0000
vn -0.0001 0.0004 -1.0000
vn -0.0000 0.0003 -1.0000
vn -0.0078 -0.0016 -1.0000
vn -0.0022 0.0029 -1.0000
vn -0.0025 0.0002 -1.0000
vn 0.0000 0.0023 1.0000
vn 0.0000 0.0035 1.0000
vn -0.0000 -0.0013 1.0000
vn 0.0000 0.0026 1.0000
vn 0.8358 -0.5490 0.0000
vn -0.7848 0.6198 0.0000
vn -0.7847 0.6198 0.0000
vn -0.0000 0.0023 -1.0000
vn -0.0000 0.0035 -1.0000
vn 0.0000 -0.0013 -1.0000
vn 0.0000 0.0026 -1.0000
vn 0.8655 -0.5009 0.0000
vn -0.6498 0.7601 0.0000
vn 0.8938 -0.4485 0.0000
vn -0.5358 0.8443 0.0000
vn 0.9222 -0.3867 0.0000
vn -0.4258 0.9048 0.0000
vn 0.9547 -0.2976 -0.0000
vn -0.3090 0.9511 0.0000
vn 0.9991 0.0426 0.0000
vn 0.9893 0.1458 0.0000
vn 0.9669 0.2550 0.0000
vn 0.9252 0.3794 0.0000
vn 0.9253 0.3793 0.0000
vn 0.9836 -0.1801 -0.0000
vn -0.1719 0.9851 0.0000
vn 0.9980 -0.0633 -0.0000
vn 0.8742 0.4856 0.0000
vn 0.8742 0.4855 0.0000
vn -0.0000 1.0000 0.0000
vn 0.7848 0.6198 0.0000
vn 0.7847 0.6198 0.0000
vn 0.5358 0.8443 0.0000
vn 0.6498 0.7601 0.0000
vn 0.4258 0.9048 0.0000
vn 0.3090 0.9511 0.0000
vn 0.1719 0.9851 0.0000
vn 1.0000 0.0000 0.0000
vn 0.9921 -0.1253 0.0000
vn 0.9686 -0.2487 0.0000
vn 0.9921 0.1254 0.0000
vn 0.9298 -0.3681 0.0000
vn 0.9686 0.2487 0.0000
vn 0.8763 -0.4817 0.0000
vn 0.9298 0.3681 0.0000
vn 0.8090 -0.5878 0.0000
vn 0.8763 0.4818 0.0000
vn 0.7290 -0.6845 0.0000
vn 0.8090 0.5878 0.0000
vn 0.6374 -0.7705 0.0000
vn 0.7290 0.6846 0.0000
vn 0.5358 -0.8443 0.0000
vn 0.6374 0.7705 0.0000
vn 0.4258 -0.9048 0.0000
vn 0.3090 -0.9511 0.0000
vn 0.1874 -0.9823 0.0000
vn 0.0628 -0.9980 0.0000
vn 0.1874 0.9823 0.0000
vn -0.0628 -0.9980 0.0000
vn 0.0628 0.9980 0.0000
vn -0.1874 -0.9823 0.0000
vn -0.0628 0.9980 0.0000
vn -0.3090 -0.9511 0.0000
vn -0.1874 0.9823 0.0000
vn -0.4258 -0.9048 0.0000
vn -0.5358 -0.8443 0.0000
vn -0.6374 -0.7705 0.0000
vn -0.7290 -0.6845 0.0000
vn -0.6374 0.7705 0.0000
vn -0.8090 -0.5878 0.0000
vn -0.7290 0.6846 0.0000
vn -0.8763 -0.4817 0.0000
vn -0.8090 0.5878 0.0000
vn -0.9298 -0.3681 0.0000
vn -0.8763 0.4818 0.0000
vn -0.9686 -0.2487 0.0000
vn -0.9298 0.3681 0.0000
vn -0.9921 -0.1253 -0.0000
vn -0.9686 0.2487 0.0000
vn -1.0000 0.0000 0.0000
vn -0.9921 0.1254 0.0000
usemtl 塑料玻璃着色器
s 1
f 1/1/1 2/2/2 160/3/2
f 160/3/2 159/4/1 1/1/1
f 161/5/3 3/6/3 1/1/1
f 1/1/1 159/4/1 161/5/3
f 163/7/2 2/2/2 1/1/1
f 1/1/1 162/8/1 163/7/2
f 2/2/2 4/9/4 164/10/4
f 164/10/4 160/3/2 2/2/2
f 165/11/5 5/12/5 3/6/3
f 3/6/3 161/5/3 165/11/5
f 1/1/1 3/6/3 166/13/3
f 166/13/3 162/8/1 1/1/1
f 167/14/4 4/9/4 2/2/2
f 2/2/2 163/7/2 167/14/4
f 164/10/4 4/9/4 6/15/6
f 6/15/6 168/16/6 164/10/4
f 169/17/7 7/18/7 5/12/5
f 5/12/5 165/11/5 169/17/7
f 3/6/3 5/12/5 170/19/5
f 170/19/5 166/13/3 3/6/3
f 6/15/6 4/9/4 167/14/4
f 167/14/4 171/20/6 6/15/6
f 168/16/6 6/15/6 8/21/8
f 8/21/8 172/22/8 168/16/6
f 173/23/9 9/24/9 7/18/7
f 7/18/7 169/17/7 173/23/9
f 5/12/5 7/18/7 174/25/7
f 174/25/7 170/19/5 5/12/5
f 8/21/8 6/15/6 171/20/6
f 171/20/6 175/26/8 8/21/8
f 172/22/8 8/21/8 10/27/10
f 10/27/10 176/28/10 172/22/8
f 177/29/11 11/30/11 9/24/9
f 9/24/9 173/23/9 177/29/11
f 7/18/7 9/24/9 178/31/9
f 178/31/9 174/25/7 7/18/7
f 10/27/10 8/21/8 175/26/8
f 175/26/8 179/32/10 10/27/10
f 176/28/10 10/27/10 12/33/12
f 12/33/12 180/34/12 176/28/10
f 181/35/13 13/36/13 11/30/11
f 11/30/11 177/29/11 181/35/13
f 9/24/9 11/30/11 182/37/11
f 182/37/11 178/31/9 9/24/9
f 12/33/12 10/27/10 179/32/10
f 179/32/10 183/38/12 12/33/12
f 180/34/12 12/33/12 14/39/14
f 14/39/14 184/40/14 180/34/12
f 185/41/15 15/42/15 13/36/13
f 13/36/13 181/35/13 185/41/15
f 11/30/11 13/36/13 186/43/13
f 186/43/13 182/37/11 11/30/11
f 14/39/14 12/33/12 183/38/12
f 183/38/12 187/44/14 14/39/14
f 184/40/14 14/39/14 16/45/16
f 16/45/16 188/46/16 184/40/14
f 189/47/17 17/48/17 15/42/15
f 15/42/15 185/41/15 189/47/17
f 13/36/13 15/42/15 190/49/15
f 190/49/15 186/43/13 13/36/13
f 16/45/16 14/39/14 187/44/14
f 187/44/14 191/50/16 16/45/16
f 188/46/16 16/45/16 18/51/18
f 18/51/18 192/52/18 188/46/16
f 198/53/19 19/54/19 17/48/17
f 17/48/17 189/47/17 198/53/19
f 15/42/15 17/48/17 199/55/17
f 199/55/17 190/49/15 15/42/15
f 18/51/18 16/45/16 191/50/16
f 191/50/16 200/56/18 18/51/18
f 192/52/18 18/51/18 20/57/20
f 20/57/20 204/58/20 192/52/18
f 206/59/21 21/60/21 19/54/19
f 19/54/19 198/53/19 206/59/21
f 17/48/17 19/54/19 207/61/19
f 207/61/19 199/55/17 17/48/17
f 20/57/20 18/51/18 200/56/18
f 200/56/18 216/62/20 20/57/20
f 201/63/22 217/64/22 219/65/22
f 219/65/22 203/66/22 202/67/22
f 201/63/22 219/65/22 202/67/22
f 202/67/22 218/68/22 220/69/22
f 220/69/22 221/70/22 222/71/22
f 202/67/22 220/69/22 222/71/22
f 201/63/22 202/67/22 222/71/22
f 222/71/22 223/72/22 224/73/22
f 224/73/22 225/74/22 226/75/22
f 222/71/22 224/73/22 226/75/22
f 226/75/22 227/76/22 228/77/22
f 228/77/22 229/78/22 230/79/23
f 226/75/22 228/77/22 230/79/23
f 222/71/22 226/75/22 230/79/23
f 23/80/24 205/81/25 197/82/22
f 22/83/24 23/80/24 197/82/22
f 230/79/23 22/83/24 197/82/22
f 222/71/22 230/79/23 197/82/22
f 201/63/22 222/71/22 197/82/22
f 197/82/22 196/84/22 195/85/22
f 201/63/22 197/82/22 195/85/22
f 201/63/22 195/85/22 194/86/22
f 201/63/22 194/86/22 193/87/22
f 20/57/20 24/88/26 231/89/26
f 231/89/26 204/58/20 20/57/20
f 233/90/27 25/91/28 21/60/21
f 21/60/21 206/59/21 233/90/27
f 19/54/19 21/60/21 234/92/21
f 234/92/21 207/61/19 19/54/19
f 208/93/29 209/94/29 210/95/29
f 210/95/29 211/96/29 212/97/29
f 212/97/29 235/98/30 26/99/31
f 210/95/29 212/97/29 26/99/31
f 27/100/31 239/101/32 240/102/29
f 26/99/31 27/100/31 240/102/29
f 210/95/29 26/99/31 240/102/29
f 240/102/29 241/103/29 242/104/29
f 242/104/29 243/105/29 244/106/29
f 240/102/29 242/104/29 244/106/29
f 244/106/29 245/107/29 246/108/29
f 246/108/29 247/109/29 248/110/29
f 244/106/29 246/108/29 248/110/29
f 240/102/29 244/106/29 248/110/29
f 210/95/29 240/102/29 248/110/29
f 248/110/29 249/111/29 237/112/29
f 237/112/29 215/113/29 214/114/29
f 248/110/29 237/112/29 214/114/29
f 210/95/29 248/110/29 214/114/29
f 214/114/29 238/115/29 236/116/29
f 210/95/29 214/114/29 236/116/29
f 208/93/29 210/95/29 236/116/29
f 208/93/29 236/116/29 213/117/29
f 250/118/26 24/88/26 20/57/20
f 20/57/20 216/62/20 250/118/26
f 230/79/23 251/119/22 252/120/22
f 252/120/22 253/121/22 254/122/22
f 254/122/22 255/123/22 256/124/33
f 252/120/22 254/122/22 256/124/33
f 230/79/23 252/120/22 256/124/33
f 230/79/23 256/124/33 28/125/34
f 22/83/24 230/79/23 28/125/34
f 29/126/35 23/80/24 30/127/36
f 29/126/35 30/127/36 31/128/36
f 29/126/35 31/128/36 32/129/36
f 29/126/35 32/129/36 33/130/36
f 29/126/35 33/130/36 34/131/36
f 29/126/35 34/131/36 35/132/36
f 29/126/35 35/132/36 36/133/36
f 29/126/35 36/133/36 37/134/36
f 29/126/35 37/134/36 38/135/36
f 29/126/35 38/135/36 39/136/36
f 28/125/34 29/126/35 39/136/36
f 28/125/34 39/136/36 40/137/37
f 28/125/34 40/137/37 41/138/36
f 28/125/34 41/138/36 42/139/36
f 28/125/34 42/139/36 43/140/36
f 28/125/34 43/140/36 44/141/36
f 28/125/34 44/141/36 45/142/36
f 28/125/34 45/142/36 46/143/36
f 28/125/34 46/143/36 47/144/36
f 28/125/34 47/144/36 48/145/36
f 28/125/34 48/145/36 49/146/36
f 28/125/34 49/146/36 50/147/36
f 28/125/34 50/147/36 51/148/36
f 28/125/34 51/148/36 52/149/36
f 28/125/34 52/149/36 53/150/36
f 79/151/36 30/127/36 23/80/24
f 78/152/36 79/151/36 23/80/24
f 77/153/36 78/152/36 23/80/24
f 76/154/36 77/153/36 23/80/24
f 75/155/36 76/154/36 23/80/24
f 74/156/36 75/155/36 23/80/24
f 73/157/36 74/156/36 23/80/24
f 72/158/36 73/157/36 23/80/24
f 71/159/36 72/158/36 23/80/24
f 70/160/36 71/159/36 23/80/24
f 69/161/36 70/160/36 23/80/24
f 68/162/36 69/161/36 23/80/24
f 67/163/36 68/162/36 23/80/24
f 67/163/36 23/80/24 22/83/24
f 66/164/36 67/163/36 22/83/24
f 65/165/36 66/164/36 22/83/24
f 64/166/36 65/165/36 22/83/24
f 63/167/36 64/166/36 22/83/24
f 62/168/36 63/167/36 22/83/24
f 61/169/36 62/168/36 22/83/24
f 60/170/36 61/169/36 22/83/24
f 59/171/36 60/170/36 22/83/24
f 58/172/36 59/171/36 22/83/24
f 57/173/36 58/172/36 22/83/24
f 56/174/36 57/173/36 22/83/24
f 55/175/36 56/174/36 22/83/24
f 54/176/38 55/175/36 22/83/24
f 53/150/36 54/176/38 22/83/24
f 28/125/34 53/150/36 22/83/24
f 257/177/39 258/178/39 259/179/39
f 259/179/22 260/180/22 261/181/22
f 261/181/22 232/182/22 205/81/22
f 259/179/22 261/181/22 205/81/22
f 257/177/40 259/179/41 205/81/25
f 257/177/40 205/81/25 23/80/24
f 29/126/35 257/177/40 23/80/24
f 24/88/26 80/183/42 262/184/42
f 262/184/42 231/89/26 24/88/26
f 263/185/43 81/186/44 25/91/28
f 25/91/28 233/90/27 263/185/43
f 21/60/21 25/91/28 264/187/27
f 264/187/27 234/92/21 21/60/21
f 235/98/30 265/188/29 266/189/29
f 266/189/29 267/190/29 268/191/29
f 268/191/29 269/192/29 270/193/45
f 266/189/29 268/191/29 270/193/45
f 235/98/30 266/189/29 270/193/45
f 235/98/30 270/193/45 82/194/46
f 26/99/31 235/98/30 82/194/46
f 26/99/31 84/195/47 85/196/47
f 26/99/31 85/196/47 86/197/47
f 26/99/31 86/197/47 87/198/47
f 26/99/31 87/198/47 88/199/47
f 26/99/31 88/199/47 89/200/47
f 26/99/31 89/200/47 90/201/47
f 26/99/31 90/201/47 91/202/47
f 26/99/31 91/202/47 92/203/47
f 26/99/31 92/203/47 93/204/47
f 26/99/31 93/204/47 94/205/47
f 26/99/31 94/205/47 95/206/47
f 26/99/31 95/206/47 96/207/47
f 27/100/31 26/99/31 96/207/47
f 27/100/31 96/207/47 97/208/47
f 27/100/31 97/208/47 98/209/47
f 27/100/31 98/209/47 99/210/47
f 27/100/31 99/210/47 100/211/47
f 27/100/31 100/211/47 101/212/47
f 27/100/31 101/212/47 102/213/47
f 27/100/31 102/213/47 103/214/47
f 27/100/31 103/214/47 104/215/47
f 27/100/31 104/215/47 105/216/47
f 27/100/31 105/216/47 106/217/47
f 27/100/31 106/217/47 107/218/47
f 27/100/31 107/218/47 108/219/47
f 83/220/48 27/100/31 108/219/47
f 83/220/48 108/219/47 109/221/49
f 83/220/48 109/221/49 110/222/47
f 83/220/48 110/222/47 111/223/47
f 83/220/48 111/223/47 112/224/47
f 83/220/48 112/224/47 113/225/47
f 83/220/48 113/225/47 114/226/47
f 83/220/48 114/226/47 115/227/47
f 83/220/48 115/227/47 116/228/47
f 83/220/48 116/228/47 117/229/47
f 83/220/48 117/229/47 118/230/47
f 82/194/46 83/220/48 118/230/47
f 82/194/46 118/230/47 119/231/50
f 82/194/46 119/231/50 120/232/47
f 82/194/46 120/232/47 121/233/47
f 82/194/46 121/233/47 122/234/47
f 82/194/46 122/234/47 123/235/47
f 82/194/46 123/235/47 124/236/47
f 82/194/46 124/236/47 125/237/47
f 82/194/46 125/237/47 126/238/47
f 82/194/46 126/238/47 127/239/47
f 82/194/46 127/239/47 128/240/47
f 82/194/46 128/240/47 129/241/47
f 82/194/46 129/241/47 130/242/47
f 82/194/46 130/242/47 131/243/47
f 82/194/46 131/243/47 132/244/47
f 82/194/46 132/244/47 133/245/47
f 82/194/46 133/245/47 84/195/47
f 82/194/46 84/195/47 26/99/31
f 271/246/51 272/247/51 273/248/51
f 273/248/29 274/249/29 275/250/29
f 275/250/29 276/251/29 239/101/29
f 273/248/29 275/250/29 239/101/29
f 271/246/52 273/248/53 239/101/32
f 271/246/52 239/101/32 27/100/31
f 83/220/48 271/246/52 27/100/31
f 277/252/42 80/183/42 24/88/26
f 24/88/26 250/118/26 277/252/42
f 256/124/33 278/253/54 28/125/34
f 279/254/55 280/255/56 257/177/57
f 279/254/57 257/177/40 29/126/35
f 279/254/57 29/126/35 28/125/34
f 278/253/54 279/254/57 28/125/34
f 80/183/42 134/256/58 281/257/58
f 281/257/58 262/184/42 80/183/42
f 263/258/43 282/259/59 135/260/60
f 135/260/60 81/261/44 263/258/43
f 25/91/28 81/186/44 283/262/43
f 283/262/43 264/187/27 25/91/28
f 270/193/45 284/263/61 82/194/46
f 285/264/62 286/265/63 271/246/64
f 285/264/64 271/246/52 83/220/48
f 285/264/64 83/220/48 82/194/46
f 284/263/61 285/264/64 82/194/46
f 287/266/58 134/256/58 80/183/42
f 80/183/42 277/252/42 287/266/58
f 288/267/22 289/268/22 290/269/22
f 290/269/22 291/270/22 292/271/22
f 288/267/22 290/269/22 292/271/22
f 292/271/22 293/272/22 294/273/22
f 294/273/22 295/274/22 296/275/22
f 292/271/22 294/273/22 296/275/22
f 296/275/22 297/276/22 298/277/22
f 292/271/22 296/275/22 298/277/22
f 288/267/22 292/271/22 298/277/22
f 288/267/22 298/277/22 280/255/56
f 279/254/55 288/267/22 280/255/56
f 134/256/58 136/278/65 299/279/65
f 299/279/65 281/257/58 134/256/58
f 135/260/60 300/280/59 283/281/43
f 283/281/43 81/261/44 135/260/60
f 282/259/59 301/282/66 137/283/66
f 137/283/66 135/260/60 282/259/59
f 302/284/29 303/285/29 304/286/29
f 304/286/29 305/287/29 306/288/29
f 302/284/29 304/286/29 306/288/29
f 306/288/29 307/289/29 308/290/29
f 308/290/29 309/291/29 310/292/29
f 306/288/29 308/290/29 310/292/29
f 310/292/29 311/293/29 312/294/29
f 306/288/29 310/292/29 312/294/29
f 302/284/29 306/288/29 312/294/29
f 302/284/29 312/294/29 286/265/63
f 285/264/62 302/284/29 286/265/63
f 313/295/65 136/278/65 134/256/58
f 134/256/58 287/266/58 313/295/65
f 136/278/65 138/296/67 314/297/67
f 314/297/67 299/279/65 136/278/65
f 137/283/66 315/298/66 300/280/59
f 300/280/59 135/260/60 137/283/66
f 301/282/66 316/299/68 139/300/68
f 139/300/68 137/283/66 301/282/66
f 317/301/67 138/296/67 136/278/65
f 136/278/65 313/295/65 317/301/67
f 138/296/67 140/302/69 318/303/69
f 318/303/69 314/297/67 138/296/67
f 139/300/68 319/304/68 315/298/66
f 315/298/66 137/283/66 139/300/68
f 316/299/68 320/305/70 141/306/70
f 141/306/70 139/300/68 316/299/68
f 321/307/69 140/302/69 138/296/67
f 138/296/67 317/301/67 321/307/69
f 140/302/69 142/308/71 326/309/71
f 326/309/71 318/303/69 140/302/69
f 141/306/70 327/310/70 319/304/68
f 319/304/68 139/300/68 141/306/70
f 320/305/70 328/311/72 143/312/72
f 143/312/72 141/306/70 320/305/70
f 332/313/71 142/308/71 140/302/69
f 140/302/69 321/307/69 332/313/71
f 144/314/73 145/315/74 323/316/74
f 323/316/74 322/317/73 144/314/73
f 145/315/74 146/318/75 324/319/75
f 324/319/75 323/316/74 145/315/74
f 146/318/75 147/320/76 325/321/77
f 325/321/77 324/319/75 146/318/75
f 142/308/71 148/322/78 335/323/78
f 335/323/78 326/309/71 142/308/71
f 143/312/72 336/324/72 327/310/70
f 327/310/70 141/306/70 143/312/72
f 328/311/72 337/325/79 149/326/79
f 149/326/79 143/312/72 328/311/72
f 329/327/75 146/318/75 145/315/74
f 145/315/74 330/328/74 329/327/75
f 330/328/74 145/315/74 144/314/73
f 144/314/73 331/329/73 330/328/74
f 341/330/78 148/322/78 142/308/71
f 142/308/71 332/313/71 341/330/78
f 150/331/80 144/314/73 322/317/73
f 322/317/73 333/332/80 150/331/80
f 339/333/77 147/320/76 146/318/75
f 146/318/75 329/327/75 339/333/77
f 147/320/76 151/334/81 334/335/82
f 334/335/82 325/321/77 147/320/76
f 148/322/78 150/331/80 333/332/80
f 333/332/80 335/323/78 148/322/78
f 149/326/79 349/336/79 336/324/72
f 336/324/72 143/312/72 149/326/79
f 337/325/79 348/337/83 152/338/83
f 152/338/83 149/326/79 337/325/79
f 338/339/82 151/334/81 147/320/76
f 147/320/76 339/333/77 338/339/82
f 331/329/73 144/314/73 150/331/80
f 150/331/80 340/340/80 331/329/73
f 340/340/80 150/331/80 148/322/78
f 148/322/78 341/330/78 340/340/80
f 342/341/84 334/342/82 151/343/81
f 151/343/81 153/344/85 342/341/84
f 344/345/86 343/346/87 155/347/87
f 155/347/87 154/348/86 344/345/86
f 345/349/88 344/345/86 154/348/86
f 154/348/86 156/350/88 345/349/88
f 346/351/89 345/349/88 156/350/88
f 156/350/88 157/352/89 346/351/89
f 347/353/90 346/351/89 157/352/89
f 157/352/89 158/354/90 347/353/90
f 348/337/83 347/353/90 158/354/90
f 158/354/90 152/338/83 348/337/83
f 152/338/83 350/355/83 349/336/79
f 349/336/79 149/326/79 152/338/83
f 158/354/90 351/356/90 350/355/83
f 350/355/83 152/338/83 158/354/90
f 157/352/89 352/357/89 351/356/90
f 351/356/90 158/354/90 157/352/89
f 156/350/88 353/358/88 352/357/89
f 352/357/89 157/352/89 156/350/88
f 154/348/86 354/359/86 353/358/88
f 353/358/88 156/350/88 154/348/86
f 155/347/87 355/360/87 354/359/86
f 354/359/86 154/348/86 155/347/87
f 151/343/81 338/361/82 356/362/84
f 356/362/84 153/344/85 151/343/81
f 343/346/87 342/341/84 153/344/85
f 153/344/85 155/347/87 343/346/87
f 153/344/85 356/362/84 355/360/87
f 355/360/87 155/347/87 153/344/85
f 30/363/91 84/364/91 133/365/92
f 133/365/92 31/366/92 30/363/91
f 31/366/92 133/365/92 132/367/93
f 132/367/93 32/368/93 31/366/92
f 79/369/94 85/370/94 84/364/91
f 84/364/91 30/363/91 79/369/94
f 32/368/93 132/367/93 131/371/95
f 131/371/95 33/372/95 32/368/93
f 78/373/96 86/374/96 85/370/94
f 85/370/94 79/369/94 78/373/96
f 33/372/95 131/371/95 130/375/97
f 130/375/97 34/376/97 33/372/95
f 77/377/98 87/378/98 86/374/96
f 86/374/96 78/373/96 77/377/98
f 34/376/97 130/375/97 129/379/99
f 129/379/99 35/380/99 34/376/97
f 76/381/100 88/382/100 87/378/98
f 87/378/98 77/377/98 76/381/100
f 35/380/99 129/379/99 128/383/101
f 128/383/101 36/384/101 35/380/99
f 75/385/102 89/386/102 88/382/100
f 88/382/100 76/381/100 75/385/102
f 36/384/101 128/383/101 127/387/103
f 127/387/103 37/388/103 36/384/101
f 74/389/104 90/390/104 89/386/102
f 89/386/102 75/385/102 74/389/104
f 37/388/103 127/387/103 126/391/105
f 126/391/105 38/392/105 37/388/103
f 73/393/106 91/394/106 90/390/104
f 90/390/104 74/389/104 73/393/106
f 38/392/105 126/391/105 125/395/107
f 125/395/107 39/396/107 38/392/105
f 72/397/86 92/398/86 91/394/106
f 91/394/106 73/393/106 72/397/86
f 39/396/107 125/395/107 124/399/108
f 124/399/108 40/400/108 39/396/107
f 71/401/88 93/402/88 92/398/86
f 92/398/86 72/397/86 71/401/88
f 40/400/108 124/399/108 123/403/109
f 123/403/109 41/404/109 40/400/108
f 70/405/89 94/406/89 93/402/88
f 93/402/88 71/401/88 70/405/89
f 41/404/109 123/403/109 122/407/110
f 122/407/110 42/408/110 41/404/109
f 69/409/111 95/410/111 94/406/89
f 94/406/89 70/405/89 69/409/111
f 42/411/110 122/412/110 121/413/112
f 121/413/112 43/414/112 42/411/110
f 68/415/113 96/416/113 95/410/111
f 95/410/111 69/409/111 68/415/113
f 43/414/112 121/413/112 120/417/114
f 120/417/114 44/418/114 43/414/112
f 67/419/115 97/420/115 96/416/113
f 96/416/113 68/415/113 67/419/115
f 44/418/114 120/417/114 119/421/116
f 119/421/116 45/422/116 44/418/114
f 66/423/117 98/424/117 97/420/115
f 97/420/115 67/419/115 66/423/117
f 45/422/116 119/421/116 118/425/118
f 118/425/118 46/426/118 45/422/116
f 65/427/72 99/428/72 98/424/117
f 98/424/117 66/423/117 65/427/72
f 46/426/118 118/425/118 117/429/119
f 117/429/119 47/430/119 46/426/118
f 64/431/70 100/432/70 99/428/72
f 99/428/72 65/427/72 64/431/70
f 47/430/119 117/429/119 116/433/120
f 116/433/120 48/434/120 47/430/119
f 63/435/68 101/436/68 100/432/70
f 100/432/70 64/431/70 63/435/68
f 48/434/120 116/433/120 115/437/121
f 115/437/121 49/438/121 48/434/120
f 62/439/122 102/440/122 101/436/68
f 101/436/68 63/435/68 62/439/122
f 49/438/121 115/437/121 114/441/123
f 114/441/123 50/442/123 49/438/121
f 61/443/124 103/444/124 102/440/122
f 102/440/122 62/439/122 61/443/124
f 50/442/123 114/441/123 113/445/125
f 113/445/125 51/446/125 50/442/123
f 60/447/126 104/448/126 103/444/124
f 103/444/124 61/443/124 60/447/126
f 51/446/125 113/445/125 112/449/127
f 112/449/127 52/450/127 51/446/125
f 59/451/128 105/452/128 104/448/126
f 104/448/126 60/447/126 59/451/128
f 52/450/127 112/449/127 111/453/129
f 111/453/129 53/454/129 52/450/127
f 58/455/130 106/456/130 105/452/128
f 105/452/128 59/451/128 58/455/130
f 53/454/129 111/453/129 110/457/131
f 110/457/131 54/458/131 53/454/129
f 57/459/132 107/460/132 106/456/130
f 106/456/130 58/455/130 57/459/132
f 54/458/131 110/457/131 109/461/133
f 109/461/133 55/462/133 54/458/131
f 56/463/134 108/464/134 107/460/132
f 107/460/132 57/459/132 56/463/134
f 55/462/133 109/461/133 108/464/134
f 108/464/134 56/463/134 55/462/133
